<svg id="Calque_1" xmlns="http://www.w3.org/2000/svg" xmlns:xlink="http://www.w3.org/1999/xlink" width="90" height="90" viewBox="0 0 90 90"><defs><path id="SVGID_1_" d="M0 0h90v90H0z"/></defs><clipPath id="SVGID_2_"><use xlink:href="#SVGID_1_" overflow="visible"/></clipPath><g clip-path="url(#SVGID_2_)"><defs><path id="SVGID_3_" d="M0 0h90v90H0z"/></defs><clipPath id="SVGID_4_"><use xlink:href="#SVGID_3_" overflow="visible"/></clipPath><g clip-path="url(#SVGID_4_)"><defs><path id="SVGID_5_" d="M0 0h90v90H0z"/></defs><clipPath id="SVGID_6_"><use xlink:href="#SVGID_5_" overflow="visible"/></clipPath><g clip-path="url(#SVGID_6_)"><defs><path id="SVGID_7_" d="M-157.3-241.3h403v570h-403z"/></defs><clipPath id="SVGID_8_"><use xlink:href="#SVGID_7_" overflow="visible"/></clipPath><path clip-path="url(#SVGID_8_)" fill="#0076BE" d="M10.4 0C3.1 0 0 4.5 0 10.9v55.5c6.3-2.5 14.3-4.7 22.9-4.7 19 0 23.8 10.4 43.3 10.4 9 0 17.3-1.9 23.7-4V0H10.4z"/><path clip-path="url(#SVGID_8_)" fill="#6AC025" d="M19.8 64.2c-7.7 0-14.5 1.7-19.8 3.6V90h78.2C84.4 90 90 88.1 90 78v-7.6c-6.9 2.5-15.9 4.9-25.3 4.9-19.6 0-25.9-11.1-44.9-11.1"/><path clip-path="url(#SVGID_8_)" fill="#FFF" d="M19.2 23.2h-1.5l.9-4.9c.2-1 .4-2.2.6-3.1L18 17.6l-2.3 4.3h-1.4l-.5-4.2c-.1-.7-.1-1.7-.2-2.4-.2 1-.4 2.1-.7 3.1l-1.2 4.8h-1.3l2.7-10.3h1.6l.5 4.8c.1.8.1 1.9.2 2.6.4-.9.9-1.8 1.3-2.6l2.5-4.8H21l-1.8 10.3z"/><path clip-path="url(#SVGID_8_)" fill="none" stroke="#FFF" stroke-width=".283" d="M19.2 23.2h-1.5l.9-4.9c.2-1 .4-2.2.6-3.1L18 17.6l-2.3 4.3h-1.4l-.5-4.2c-.1-.7-.1-1.7-.2-2.4-.2 1-.4 2.1-.7 3.1l-1.2 4.8h-1.3l2.7-10.3h1.6l.5 4.8c.1.8.1 1.9.2 2.6.4-.9.9-1.8 1.3-2.6l2.5-4.8H21l-1.8 10.3z"/><path clip-path="url(#SVGID_8_)" fill="#FFF" d="M27.7 21.3c0 .2-.1.3-.1.5 0 .3.2.5.5.5.2 0 .3 0 .5-.1l-.3 1c-.2.1-.5.1-.7.1-.7 0-1.3-.3-1.3-1.1-.6.6-1.3 1.2-2.2 1.2-.9 0-1.8-.6-1.8-1.7 0-.4.1-.7.1-1l1-4.9h1.3l-1 4.8c0 .2-.1.5-.1.8 0 .7.4.9.9.9.7 0 1.5-.7 1.9-1.2l1.1-5.3h1.3l-1.1 5.5z"/><path clip-path="url(#SVGID_8_)" fill="none" stroke="#FFF" stroke-width=".283" d="M27.7 21.3c0 .2-.1.3-.1.5 0 .3.2.5.5.5.2 0 .3 0 .5-.1l-.3 1c-.2.1-.5.1-.7.1-.7 0-1.3-.3-1.3-1.1-.6.6-1.3 1.2-2.2 1.2-.9 0-1.8-.6-1.8-1.7 0-.4.1-.7.1-1l1-4.9h1.3l-1 4.8c0 .2-.1.5-.1.8 0 .7.4.9.9.9.7 0 1.5-.7 1.9-1.2l1.1-5.3h1.3l-1.1 5.5z"/><path clip-path="url(#SVGID_8_)" fill="#FFF" d="M34.8 16.9h-2l-.8 3.6c-.1.3-.1.7-.1 1 0 .6.3.9.9.9.3 0 .7-.1 1-.3l-.2 1.1c-.3.2-.8.3-1.2.3-1.2 0-1.8-.7-1.8-1.8 0-.4.1-.7.1-1.1l.8-3.6h-1l.3-1h.9l.4-1.9 1.4-.5-.5 2.3h2l-.2 1z"/><path clip-path="url(#SVGID_8_)" fill="none" stroke="#FFF" stroke-width=".283" d="M34.8 16.9h-2l-.8 3.6c-.1.3-.1.7-.1 1 0 .6.3.9.9.9.3 0 .7-.1 1-.3l-.2 1.1c-.3.2-.8.3-1.2.3-1.2 0-1.8-.7-1.8-1.8 0-.4.1-.7.1-1.1l.8-3.6h-1l.3-1h.9l.4-1.9 1.4-.5-.5 2.3h2l-.2 1z"/><path clip-path="url(#SVGID_8_)" fill="#FFF" d="M41.4 21.3c0 .2-.1.3-.1.5 0 .3.2.5.5.5.2 0 .3 0 .5-.1l-.3 1c-.2.1-.5.1-.7.1-.7 0-1.3-.3-1.3-1.1-.6.6-1.3 1.2-2.2 1.2-.9 0-1.8-.6-1.8-1.7 0-.4.1-.7.1-1l1-4.9h1.3l-1 4.8c0 .2-.1.5-.1.8 0 .7.4.9.9.9.7 0 1.5-.7 1.9-1.2l1.1-5.3h1.3l-1.1 5.5z"/><path clip-path="url(#SVGID_8_)" fill="none" stroke="#FFF" stroke-width=".283" d="M41.4 21.3c0 .2-.1.3-.1.5 0 .3.2.5.5.5.2 0 .3 0 .5-.1l-.3 1c-.2.1-.5.1-.7.1-.7 0-1.3-.3-1.3-1.1-.6.6-1.3 1.2-2.2 1.2-.9 0-1.8-.6-1.8-1.7 0-.4.1-.7.1-1l1-4.9h1.3l-1 4.8c0 .2-.1.5-.1.8 0 .7.4.9.9.9.7 0 1.5-.7 1.9-1.2l1.1-5.3h1.3l-1.1 5.5z"/><path clip-path="url(#SVGID_8_)" fill="#FFF" d="M49.9 18.5c-1.4.7-2.9 1.1-4.5 1.2v.7c0 1.2.6 1.9 1.8 1.9.7 0 1.4-.2 1.9-.7l-.2 1.2c-.6.4-1.4.6-2.1.6-1.7 0-2.8-1-2.8-2.8 0-2.2 1.3-5.1 3.9-5.1 1.2 0 2.1.8 2.1 2 .1.3 0 .7-.1 1m-2.3-2c-1.1 0-1.8 1.2-2.1 2.3 1.1-.1 2.1-.4 3.1-.8 0-.1.1-.3.1-.4 0-.6-.4-1.1-1.1-1.1"/><path clip-path="url(#SVGID_8_)" fill="none" stroke="#FFF" stroke-width=".283" d="M49.9 18.5c-1.4.7-2.9 1.1-4.5 1.2v.7c0 1.2.6 1.9 1.8 1.9.7 0 1.4-.2 1.9-.7l-.2 1.2c-.6.4-1.4.6-2.1.6-1.7 0-2.8-1-2.8-2.8 0-2.2 1.3-5.1 3.9-5.1 1.2 0 2.1.8 2.1 2 .1.3 0 .7-.1 1zm-2.3-2c-1.1 0-1.8 1.2-2.1 2.3 1.1-.1 2.1-.4 3.1-.8 0-.1.1-.3.1-.4 0-.6-.4-1.1-1.1-1.1z"/><path clip-path="url(#SVGID_8_)" fill="#FFF" d="M53.1 21.3c0 .2-.1.3-.1.5 0 .3.2.5.5.5.2 0 .3 0 .5-.1l-.3 1c-.2.1-.5.1-.7.1-.8 0-1.3-.3-1.3-1.1 0-.3.1-.6.1-1l1.9-8.9 1.4-.3-2 9.3z"/><path clip-path="url(#SVGID_8_)" fill="none" stroke="#FFF" stroke-width=".283" d="M53.1 21.3c0 .2-.1.3-.1.5 0 .3.2.5.5.5.2 0 .3 0 .5-.1l-.3 1c-.2.1-.5.1-.7.1-.8 0-1.3-.3-1.3-1.1 0-.3.1-.6.1-1l1.9-8.9 1.4-.3-2 9.3z"/><path clip-path="url(#SVGID_8_)" fill="#FFF" d="M57.3 21.3c0 .2-.1.3-.1.5 0 .3.2.5.5.5.2 0 .3 0 .5-.1l-.3 1c-.2.1-.5.1-.7.1-.8 0-1.3-.3-1.3-1.1 0-.3.1-.6.1-1l1.9-8.9 1.4-.3-2 9.3z"/><path clip-path="url(#SVGID_8_)" fill="none" stroke="#FFF" stroke-width=".283" d="M57.3 21.3c0 .2-.1.3-.1.5 0 .3.2.5.5.5.2 0 .3 0 .5-.1l-.3 1c-.2.1-.5.1-.7.1-.8 0-1.3-.3-1.3-1.1 0-.3.1-.6.1-1l1.9-8.9 1.4-.3-2 9.3z"/><path clip-path="url(#SVGID_8_)" fill="#FFF" d="M65.8 18.5c-1.4.7-2.9 1.1-4.5 1.2v.7c0 1.2.6 1.9 1.8 1.9.7 0 1.4-.2 1.9-.7l-.2 1.2c-.6.4-1.4.6-2.1.6-1.7 0-2.8-1-2.8-2.8 0-2.2 1.3-5.1 3.9-5.1 1.2 0 2.1.8 2.1 2 .2.3.1.7-.1 1m-2.2-2c-1.1 0-1.8 1.2-2.1 2.3 1.1-.1 2.1-.4 3.1-.8 0-.1.1-.3.1-.4 0-.6-.4-1.1-1.1-1.1"/><path clip-path="url(#SVGID_8_)" fill="none" stroke="#FFF" stroke-width=".283" d="M65.8 18.5c-1.4.7-2.9 1.1-4.5 1.2v.7c0 1.2.6 1.9 1.8 1.9.7 0 1.4-.2 1.9-.7l-.2 1.2c-.6.4-1.4.6-2.1.6-1.7 0-2.8-1-2.8-2.8 0-2.2 1.3-5.1 3.9-5.1 1.2 0 2.1.8 2.1 2 .2.3.1.7-.1 1zm-2.2-2c-1.1 0-1.8 1.2-2.1 2.3 1.1-.1 2.1-.4 3.1-.8 0-.1.1-.3.1-.4 0-.6-.4-1.1-1.1-1.1z"/><path clip-path="url(#SVGID_8_)" fill="#FFF" d="M16 37.5c0 .1-.1.3-.1.4 0 .2.1.5.2.7l-1.3.5c-.1-.3-.2-.6-.2-.9v-.3c-.8.8-1.4 1.2-2.1 1.2-1.6 0-1.8-1.7-1.8-2.6 0-2.6 1.4-5.2 4.2-5.2.4 0 .8 0 1.1.1l.7-3.3 1.4-.3-2.1 9.7zm-1.3-5.2c-2 0-2.7 2.3-2.7 4 0 .8.2 1.7 1 1.7.7 0 1.4-.7 1.8-1.2l.9-4.3c-.2-.1-.6-.2-1-.2"/><path clip-path="url(#SVGID_8_)" fill="none" stroke="#FFF" stroke-width=".283" d="M16 37.5c0 .1-.1.3-.1.4 0 .2.1.5.2.7l-1.3.5c-.1-.3-.2-.6-.2-.9v-.3c-.8.8-1.4 1.2-2.1 1.2-1.6 0-1.8-1.7-1.8-2.6 0-2.6 1.4-5.2 4.2-5.2.4 0 .8 0 1.1.1l.7-3.3 1.4-.3-2.1 9.7zm-1.3-5.2c-2 0-2.7 2.3-2.7 4 0 .8.2 1.7 1 1.7.7 0 1.4-.7 1.8-1.2l.9-4.3c-.2-.1-.6-.2-1-.2z"/><path clip-path="url(#SVGID_8_)" fill="#FFF" d="M24.5 34.2c-1.4.7-2.9 1.1-4.5 1.2v.7c0 1.2.6 1.9 1.8 1.9.7 0 1.4-.2 1.9-.7l-.2 1.2c-.6.4-1.4.6-2.1.6-1.7 0-2.8-1.1-2.8-2.8 0-2.2 1.3-5.1 3.9-5.1 1.2 0 2.1.8 2.1 2 .1.4.1.7-.1 1m-2.2-2c-1.1 0-1.8 1.2-2.1 2.3 1.1-.1 2.1-.4 3.1-.8 0-.1.1-.3.1-.4 0-.6-.5-1.1-1.1-1.1"/><path clip-path="url(#SVGID_8_)" fill="none" stroke="#FFF" stroke-width=".283" d="M24.5 34.2c-1.4.7-2.9 1.1-4.5 1.2v.7c0 1.2.6 1.9 1.8 1.9.7 0 1.4-.2 1.9-.7l-.2 1.2c-.6.4-1.4.6-2.1.6-1.7 0-2.8-1.1-2.8-2.8 0-2.2 1.3-5.1 3.9-5.1 1.2 0 2.1.8 2.1 2 .1.4.1.7-.1 1zm-2.2-2c-1.1 0-1.8 1.2-2.1 2.3 1.1-.1 2.1-.4 3.1-.8 0-.1.1-.3.1-.4 0-.6-.5-1.1-1.1-1.1z"/><path clip-path="url(#SVGID_8_)" fill="#FFF" d="M31.8 34.8h-1.2l-.9 4.1h-1.4l2.2-10.2c.8-.1 1.6-.2 2.3-.2 1.7 0 3.3.8 3.3 2.7-.1 2.4-2.1 3.6-4.3 3.6m.8-5.2c-.3 0-.6 0-.9.1l-.8 4c.4 0 .8.1 1.1.1 1.5 0 2.6-.9 2.6-2.4-.1-1.2-.9-1.8-2-1.8"/><path clip-path="url(#SVGID_8_)" fill="none" stroke="#FFF" stroke-width=".283" d="M31.8 34.8h-1.2l-.9 4.1h-1.4l2.2-10.2c.8-.1 1.6-.2 2.3-.2 1.7 0 3.3.8 3.3 2.7-.1 2.4-2.1 3.6-4.3 3.6zm.8-5.2c-.3 0-.6 0-.9.1l-.8 4c.4 0 .8.1 1.1.1 1.5 0 2.6-.9 2.6-2.4-.1-1.2-.9-1.8-2-1.8z"/><path clip-path="url(#SVGID_8_)" fill="#FFF" d="M39 39.2c-1.7 0-2.5-1.2-2.5-2.8 0-2.3 1.3-5.2 3.9-5.2 1.7 0 2.5 1.2 2.5 2.8 0 2.3-1.3 5.2-3.9 5.2m1.2-7c-1.9 0-2.3 2.8-2.3 4.2 0 .8.3 1.7 1.3 1.7 1.9 0 2.3-2.8 2.3-4.2 0-.8-.3-1.7-1.3-1.7"/><path clip-path="url(#SVGID_8_)" fill="none" stroke="#FFF" stroke-width=".283" d="M39 39.2c-1.7 0-2.5-1.2-2.5-2.8 0-2.3 1.3-5.2 3.9-5.2 1.7 0 2.5 1.2 2.5 2.8 0 2.3-1.3 5.2-3.9 5.2zm1.2-7c-1.9 0-2.3 2.8-2.3 4.2 0 .8.3 1.7 1.3 1.7 1.9 0 2.3-2.8 2.3-4.2 0-.8-.3-1.7-1.3-1.7z"/><path clip-path="url(#SVGID_8_)" fill="#FFF" d="M45.9 37.1c0 .2-.1.3-.1.5 0 .3.2.5.5.5.2 0 .3 0 .5-.1l-.3 1h-.6c-.8 0-1.3-.3-1.3-1.1 0-.3.1-.6.1-1l1.2-5.4h1.3l-1.3 5.6zm1.1-7.6c-.4 0-.7-.3-.7-.7 0-.6.3-1.1 1-1.1.4 0 .7.3.7.7 0 .6-.4 1.1-1 1.1"/><path clip-path="url(#SVGID_8_)" fill="none" stroke="#FFF" stroke-width=".283" d="M45.9 37.1c0 .2-.1.3-.1.5 0 .3.2.5.5.5.2 0 .3 0 .5-.1l-.3 1h-.6c-.8 0-1.3-.3-1.3-1.1 0-.3.1-.6.1-1l1.2-5.4h1.3l-1.3 5.6zm1.1-7.6c-.4 0-.7-.3-.7-.7 0-.6.3-1.1 1-1.1.4 0 .7.3.7.7 0 .6-.4 1.1-1 1.1z"/><path clip-path="url(#SVGID_8_)" fill="#FFF" d="M53.1 32.6h-2l-.8 3.6c-.1.3-.1.7-.1 1 0 .6.3.9.9.9.3 0 .7-.1 1-.3l-.2 1.1c-.4.2-.8.3-1.2.3-1.2 0-1.8-.7-1.8-1.8 0-.4.1-.7.1-1.1l.8-3.6h-1l.3-1h.9l.4-1.9 1.4-.5-.5 2.4h2l-.2.9z"/><path clip-path="url(#SVGID_8_)" fill="none" stroke="#FFF" stroke-width=".283" d="M53.1 32.6h-2l-.8 3.6c-.1.3-.1.7-.1 1 0 .6.3.9.9.9.3 0 .7-.1 1-.3l-.2 1.1c-.4.2-.8.3-1.2.3-1.2 0-1.8-.7-1.8-1.8 0-.4.1-.7.1-1.1l.8-3.6h-1l.3-1h.9l.4-1.9 1.4-.5-.5 2.4h2l-.2.9z"/><path clip-path="url(#SVGID_8_)" fill="#FFF" d="M55.7 37.1c0 .2-.1.3-.1.5 0 .3.2.5.5.5.2 0 .3 0 .5-.1l-.3 1h-.7c-.8 0-1.3-.3-1.3-1.1 0-.3.1-.6.1-1l1.2-5.4h1.3l-1.2 5.6zm1-7.6c-.4 0-.7-.3-.7-.7 0-.6.3-1.1 1-1.1.4 0 .7.3.7.7 0 .6-.3 1.1-1 1.1"/><path clip-path="url(#SVGID_8_)" fill="none" stroke="#FFF" stroke-width=".283" d="M55.7 37.1c0 .2-.1.3-.1.5 0 .3.2.5.5.5.2 0 .3 0 .5-.1l-.3 1h-.7c-.8 0-1.3-.3-1.3-1.1 0-.3.1-.6.1-1l1.2-5.4h1.3l-1.2 5.6zm1-7.6c-.4 0-.7-.3-.7-.7 0-.6.3-1.1 1-1.1.4 0 .7.3.7.7 0 .6-.3 1.1-1 1.1z"/><path clip-path="url(#SVGID_8_)" fill="#FFF" d="M64.2 34.2c-1.4.7-2.9 1.1-4.5 1.2v.7c0 1.2.6 1.9 1.8 1.9.7 0 1.4-.2 1.9-.7l-.2 1.2c-.6.4-1.4.6-2.1.6-1.8 0-2.8-1.1-2.8-2.8 0-2.2 1.3-5.1 3.9-5.1 1.2 0 2.1.8 2.1 2 .2.4.1.7-.1 1m-2.2-2c-1.1 0-1.8 1.2-2.1 2.3 1.1-.1 2.1-.4 3.1-.8 0-.1.1-.3.1-.4 0-.6-.4-1.1-1.1-1.1"/><path clip-path="url(#SVGID_8_)" fill="none" stroke="#FFF" stroke-width=".283" d="M64.2 34.2c-1.4.7-2.9 1.1-4.5 1.2v.7c0 1.2.6 1.9 1.8 1.9.7 0 1.4-.2 1.9-.7l-.2 1.2c-.6.4-1.4.6-2.1.6-1.8 0-2.8-1.1-2.8-2.8 0-2.2 1.3-5.1 3.9-5.1 1.2 0 2.1.8 2.1 2 .2.4.1.7-.1 1zm-2.2-2c-1.1 0-1.8 1.2-2.1 2.3 1.1-.1 2.1-.4 3.1-.8 0-.1.1-.3.1-.4 0-.6-.4-1.1-1.1-1.1z"/><path clip-path="url(#SVGID_8_)" fill="#FFF" d="M70.5 32.7c-.2-.1-.4-.1-.6-.1-.6 0-1.2.5-1.7 1l-1.1 5.3h-1.3l1.3-6c0-.1.1-.3.1-.4 0-.2-.1-.5-.2-.7l1.3-.5c.1.3.2.6.2.9v.3c.6-.6 1.1-1.2 2-1.2.1 0 .2 0 .4.1l-.4 1.3z"/><path clip-path="url(#SVGID_8_)" fill="none" stroke="#FFF" stroke-width=".283" d="M70.5 32.7c-.2-.1-.4-.1-.6-.1-.6 0-1.2.5-1.7 1l-1.1 5.3h-1.3l1.3-6c0-.1.1-.3.1-.4 0-.2-.1-.5-.2-.7l1.3-.5c.1.3.2.6.2.9v.3c.6-.6 1.1-1.2 2-1.2.1 0 .2 0 .4.1l-.4 1.3z"/><path clip-path="url(#SVGID_8_)" fill="#FFF" d="M75.9 32.6c-.5-.3-1-.4-1.5-.4-.7 0-1.3.4-1.3 1.1 0 1.1 2.3 1.6 2.3 3.4 0 1.6-1.3 2.4-2.8 2.4-.7 0-1.3-.1-1.9-.4l.2-1.1c.5.3 1.1.5 1.7.5.7 0 1.5-.3 1.5-1.2 0-1.3-2.3-1.6-2.3-3.4 0-1.5 1.3-2.3 2.7-2.3.6 0 1.2.1 1.7.4l-.3 1z"/><path clip-path="url(#SVGID_8_)" fill="none" stroke="#FFF" stroke-width=".283" d="M75.9 32.6c-.5-.3-1-.4-1.5-.4-.7 0-1.3.4-1.3 1.1 0 1.1 2.3 1.6 2.3 3.4 0 1.6-1.3 2.4-2.8 2.4-.7 0-1.3-.1-1.9-.4l.2-1.1c.5.3 1.1.5 1.7.5.7 0 1.5-.3 1.5-1.2 0-1.3-2.3-1.6-2.3-3.4 0-1.5 1.3-2.3 2.7-2.3.6 0 1.2.1 1.7.4l-.3 1z"/><path clip-path="url(#SVGID_8_)" fill="#FFF" d="M16.5 53.8v-3h-3.4c-.5.9-1 2-1.4 3h-1.5c1.5-3.5 3.3-7 5.3-10.3H17c.6 3.4.9 6.8 1 10.3h-1.5zm-.5-8.6c-.8 1.4-1.6 2.9-2.3 4.4h2.8c-.2-1.4-.3-2.9-.5-4.4"/><path clip-path="url(#SVGID_8_)" fill="none" stroke="#FFF" stroke-width=".283" d="M16.5 53.8v-3h-3.4c-.5.9-1 2-1.4 3h-1.5c1.5-3.5 3.3-7 5.3-10.3H17c.6 3.4.9 6.8 1 10.3h-1.5zm-.5-8.6c-.8 1.4-1.6 2.9-2.3 4.4h2.8c-.2-1.4-.3-2.9-.5-4.4z"/><path clip-path="url(#SVGID_8_)" fill="#FFF" d="M24.7 47.5c-.5-.3-1-.4-1.5-.4-.7 0-1.3.4-1.3 1.1 0 1.2 2.3 1.6 2.3 3.4 0 1.6-1.3 2.4-2.8 2.4-.7 0-1.3-.1-1.9-.4l.2-1.1c.5.3 1.1.5 1.7.5.7 0 1.5-.3 1.5-1.2 0-1.3-2.3-1.6-2.3-3.4 0-1.5 1.3-2.3 2.7-2.3.6 0 1.2.1 1.7.4l-.3 1z"/><path clip-path="url(#SVGID_8_)" fill="none" stroke="#FFF" stroke-width=".283" d="M24.7 47.5c-.5-.3-1-.4-1.5-.4-.7 0-1.3.4-1.3 1.1 0 1.2 2.3 1.6 2.3 3.4 0 1.6-1.3 2.4-2.8 2.4-.7 0-1.3-.1-1.9-.4l.2-1.1c.5.3 1.1.5 1.7.5.7 0 1.5-.3 1.5-1.2 0-1.3-2.3-1.6-2.3-3.4 0-1.5 1.3-2.3 2.7-2.3.6 0 1.2.1 1.7.4l-.3 1z"/><path clip-path="url(#SVGID_8_)" fill="#FFF" d="M30.8 47.5c-.5-.3-1-.4-1.5-.4-.7 0-1.3.4-1.3 1.1 0 1.2 2.3 1.6 2.3 3.4 0 1.6-1.3 2.4-2.8 2.4-.7 0-1.3-.1-1.9-.4l.2-1.1c.5.3 1.1.5 1.7.5.7 0 1.5-.3 1.5-1.2 0-1.3-2.3-1.6-2.3-3.4 0-1.5 1.3-2.3 2.7-2.3.6 0 1.2.1 1.7.4l-.3 1z"/><path clip-path="url(#SVGID_8_)" fill="none" stroke="#FFF" stroke-width=".283" d="M30.8 47.5c-.5-.3-1-.4-1.5-.4-.7 0-1.3.4-1.3 1.1 0 1.2 2.3 1.6 2.3 3.4 0 1.6-1.3 2.4-2.8 2.4-.7 0-1.3-.1-1.9-.4l.2-1.1c.5.3 1.1.5 1.7.5.7 0 1.5-.3 1.5-1.2 0-1.3-2.3-1.6-2.3-3.4 0-1.5 1.3-2.3 2.7-2.3.6 0 1.2.1 1.7.4l-.3 1z"/><path clip-path="url(#SVGID_8_)" fill="#FFF" d="M37.8 51.9c0 .2-.1.3-.1.5 0 .3.2.5.5.5.2 0 .3 0 .5-.1l-.3 1c-.2.1-.5.1-.7.1-.7 0-1.3-.3-1.3-1.1-.6.6-1.3 1.2-2.2 1.2-.9 0-1.8-.6-1.8-1.7 0-.3.1-.7.1-1l1-4.9h1.3l-1 4.8c0 .2-.1.5-.1.8 0 .7.4.9.9.9.7 0 1.5-.7 1.9-1.2l1.1-5.3H39l-1.2 5.5z"/><path clip-path="url(#SVGID_8_)" fill="none" stroke="#FFF" stroke-width=".283" d="M37.8 51.9c0 .2-.1.3-.1.5 0 .3.2.5.5.5.2 0 .3 0 .5-.1l-.3 1c-.2.1-.5.1-.7.1-.7 0-1.3-.3-1.3-1.1-.6.6-1.3 1.2-2.2 1.2-.9 0-1.8-.6-1.8-1.7 0-.3.1-.7.1-1l1-4.9h1.3l-1 4.8c0 .2-.1.5-.1.8 0 .7.4.9.9.9.7 0 1.5-.7 1.9-1.2l1.1-5.3H39l-1.2 5.5z"/><path clip-path="url(#SVGID_8_)" fill="#FFF" d="M45 47.6c-.2-.1-.4-.1-.6-.1-.6 0-1.2.5-1.7 1l-1.1 5.3h-1.3l1.3-6c0-.1.1-.3.1-.4 0-.2-.1-.5-.2-.7l1.3-.5c.1.3.2.6.2.9v.3c.6-.6 1.1-1.2 2-1.2.1 0 .2 0 .4.1l-.4 1.3z"/><path clip-path="url(#SVGID_8_)" fill="none" stroke="#FFF" stroke-width=".283" d="M45 47.6c-.2-.1-.4-.1-.6-.1-.6 0-1.2.5-1.7 1l-1.1 5.3h-1.3l1.3-6c0-.1.1-.3.1-.4 0-.2-.1-.5-.2-.7l1.3-.5c.1.3.2.6.2.9v.3c.6-.6 1.1-1.2 2-1.2.1 0 .2 0 .4.1l-.4 1.3z"/><path clip-path="url(#SVGID_8_)" fill="#FFF" d="M50.8 51.9c0 .2-.1.3-.1.5 0 .3.2.5.5.5.2 0 .3 0 .5-.1l-.3 1c-.2.1-.5.1-.7.1-.7 0-1.3-.3-1.3-1.1-.6.6-1.2 1.2-2.1 1.2-1.6 0-1.8-1.7-1.8-2.6 0-2.6 1.4-5.2 4.3-5.2.6 0 1.6.1 2.2.4l-1.2 5.3zm-1.4-4.7c-2 0-2.6 2.3-2.6 4 0 .8.2 1.7 1 1.7.7 0 1.3-.7 1.8-1.2l.9-4.3c-.4-.2-.8-.2-1.1-.2"/><path clip-path="url(#SVGID_8_)" fill="none" stroke="#FFF" stroke-width=".283" d="M50.8 51.9c0 .2-.1.3-.1.5 0 .3.2.5.5.5.2 0 .3 0 .5-.1l-.3 1c-.2.1-.5.1-.7.1-.7 0-1.3-.3-1.3-1.1-.6.6-1.2 1.2-2.1 1.2-1.6 0-1.8-1.7-1.8-2.6 0-2.6 1.4-5.2 4.3-5.2.6 0 1.6.1 2.2.4l-1.2 5.3zm-1.4-4.7c-2 0-2.6 2.3-2.6 4 0 .8.2 1.7 1 1.7.7 0 1.3-.7 1.8-1.2l.9-4.3c-.4-.2-.8-.2-1.1-.2z"/><path clip-path="url(#SVGID_8_)" fill="#FFF" d="M59.9 48.9l-1 4.9h-1.3l1-4.8c0-.2.1-.5.1-.8 0-.7-.4-.9-.9-.9-.7 0-1.5.7-2 1.2l-1.1 5.3h-1.3l1.3-6c0-.1.1-.3.1-.4 0-.2-.1-.5-.2-.7l1.3-.5c.1.3.2.6.2.9v.3c.6-.6 1.3-1.2 2.2-1.2.9 0 1.8.6 1.8 1.7-.1.4-.2.7-.2 1"/><path clip-path="url(#SVGID_8_)" fill="none" stroke="#FFF" stroke-width=".283" d="M59.9 48.9l-1 4.9h-1.3l1-4.8c0-.2.1-.5.1-.8 0-.7-.4-.9-.9-.9-.7 0-1.5.7-2 1.2l-1.1 5.3h-1.3l1.3-6c0-.1.1-.3.1-.4 0-.2-.1-.5-.2-.7l1.3-.5c.1.3.2.6.2.9v.3c.6-.6 1.3-1.2 2.2-1.2.9 0 1.8.6 1.8 1.7-.1.4-.2.7-.2 1z"/><path clip-path="url(#SVGID_8_)" fill="#FFF" d="M66.2 48.4c0-.7-.1-1.3-1-1.3-1.6 0-2.1 2.7-2.1 4 0 1.1.5 1.8 1.6 1.8.6 0 1.1-.2 1.5-.5l-.2 1.1c-.5.3-1.1.5-1.7.5-1.9 0-2.6-1.3-2.6-2.9 0-1.6 1-5 3.9-5 1.2 0 1.8.6 1.8 1.8l-1.2.5z"/><path clip-path="url(#SVGID_8_)" fill="none" stroke="#FFF" stroke-width=".283" d="M66.2 48.4c0-.7-.1-1.3-1-1.3-1.6 0-2.1 2.7-2.1 4 0 1.1.5 1.8 1.6 1.8.6 0 1.1-.2 1.5-.5l-.2 1.1c-.5.3-1.1.5-1.7.5-1.9 0-2.6-1.3-2.6-2.9 0-1.6 1-5 3.9-5 1.2 0 1.8.6 1.8 1.8l-1.2.5z"/><path clip-path="url(#SVGID_8_)" fill="#FFF" d="M74 49.1c-1.4.7-2.9 1.1-4.5 1.2v.7c0 1.2.6 1.9 1.8 1.9.7 0 1.4-.2 1.9-.7l-.2 1.2c-.6.4-1.4.6-2.1.6-1.7 0-2.8-1.1-2.8-2.8 0-2.2 1.3-5.1 3.9-5.1 1.2 0 2.1.8 2.1 2 .1.4.1.7-.1 1m-2.2-2c-1.1 0-1.8 1.2-2.1 2.3 1.1-.1 2.1-.4 3.1-.8 0-.1.1-.3.1-.4 0-.6-.5-1.1-1.1-1.1"/><path clip-path="url(#SVGID_8_)" fill="none" stroke="#FFF" stroke-width=".283" d="M74 49.1c-1.4.7-2.9 1.1-4.5 1.2v.7c0 1.2.6 1.9 1.8 1.9.7 0 1.4-.2 1.9-.7l-.2 1.2c-.6.4-1.4.6-2.1.6-1.7 0-2.8-1.1-2.8-2.8 0-2.2 1.3-5.1 3.9-5.1 1.2 0 2.1.8 2.1 2 .1.4.1.7-.1 1zm-2.2-2c-1.1 0-1.8 1.2-2.1 2.3 1.1-.1 2.1-.4 3.1-.8 0-.1.1-.3.1-.4 0-.6-.5-1.1-1.1-1.1z"/><path clip-path="url(#SVGID_8_)" fill="#FFF" d="M80.4 47.5c-.5-.3-1-.4-1.5-.4-.7 0-1.3.4-1.3 1.1 0 1.2 2.3 1.6 2.3 3.4 0 1.6-1.3 2.4-2.8 2.4-.7 0-1.3-.1-1.9-.4l.2-1.1c.5.3 1.1.5 1.7.5.7 0 1.5-.3 1.5-1.2 0-1.3-2.3-1.6-2.3-3.4 0-1.5 1.3-2.3 2.7-2.3.6 0 1.2.1 1.7.4l-.3 1z"/><path clip-path="url(#SVGID_8_)" fill="none" stroke="#FFF" stroke-width=".283" d="M80.4 47.5c-.5-.3-1-.4-1.5-.4-.7 0-1.3.4-1.3 1.1 0 1.2 2.3 1.6 2.3 3.4 0 1.6-1.3 2.4-2.8 2.4-.7 0-1.3-.1-1.9-.4l.2-1.1c.5.3 1.1.5 1.7.5.7 0 1.5-.3 1.5-1.2 0-1.3-2.3-1.6-2.3-3.4 0-1.5 1.3-2.3 2.7-2.3.6 0 1.2.1 1.7.4l-.3 1z"/></g></g></g></svg>